<svg width="30" height="30" viewBox="0 0 30 30" fill="none" xmlns="http://www.w3.org/2000/svg">
<circle cx="15" cy="15" r="15" fill="#4B4B4B"/>
<path d="M15.0012 9.05002C16.9391 9.05002 17.1686 9.05728 17.9342 9.09219C18.3945 9.09782 18.8504 9.18234 19.2821 9.34207C19.5952 9.46281 19.8795 9.64777 20.1168 9.88504C20.3541 10.1223 20.539 10.4066 20.6598 10.7197C20.8195 11.1514 20.904 11.6074 20.9096 12.0676C20.9442 12.8332 20.9518 13.0627 20.9518 15.0006C20.9518 16.9385 20.9445 17.168 20.9096 17.9335C20.904 18.3938 20.8195 18.8498 20.6598 19.2815C20.539 19.5946 20.3541 19.8789 20.1168 20.1161C19.8795 20.3534 19.5952 20.5384 19.2821 20.6591C18.8504 20.8189 18.3945 20.9034 17.9342 20.909C17.169 20.9436 16.9395 20.9512 15.0012 20.9512C13.063 20.9512 12.8335 20.9439 12.0683 20.909C11.608 20.9034 11.1521 20.8189 10.7204 20.6591C10.4073 20.5384 10.1229 20.3534 9.88568 20.1161C9.6484 19.8789 9.46344 19.5946 9.3427 19.2815C9.18297 18.8498 9.09845 18.3938 9.09282 17.9335C9.05826 17.168 9.05065 16.9385 9.05065 15.0006C9.05065 13.0627 9.05791 12.8332 9.09282 12.0676C9.09845 11.6074 9.18297 11.1514 9.3427 10.7197C9.46344 10.4066 9.6484 10.1223 9.88568 9.88504C10.1229 9.64777 10.4073 9.46281 10.7204 9.34207C11.1521 9.18234 11.608 9.09782 12.0683 9.09219C12.8338 9.05763 13.0633 9.05002 15.0012 9.05002ZM15.0012 7.74219C13.0312 7.74219 12.783 7.75048 12.0088 7.78574C11.4064 7.79772 10.8104 7.91178 10.2462 8.12306C9.76211 8.30544 9.32369 8.59123 8.96148 8.96051C8.59187 9.32285 8.30583 9.76152 8.12335 10.2459C7.91206 10.8101 7.798 11.4061 7.78602 12.0085C7.75146 12.782 7.74316 13.0302 7.74316 15.0003C7.74316 16.9703 7.75146 17.2185 7.78671 17.9926C7.79869 18.595 7.91275 19.1911 8.12404 19.7553C8.30632 20.2396 8.59212 20.6783 8.96148 21.0407C9.32389 21.41 9.76256 21.6958 10.2469 21.8781C10.8111 22.0894 11.4071 22.2035 12.0095 22.2155C12.7837 22.25 13.0308 22.259 15.0019 22.259C16.973 22.259 17.2201 22.2507 17.9943 22.2155C18.5967 22.2035 19.1927 22.0894 19.757 21.8781C20.239 21.6913 20.6767 21.4059 21.0421 21.0403C21.4075 20.6746 21.6926 20.2367 21.8791 19.7546C22.0904 19.1904 22.2045 18.5944 22.2164 17.992C22.251 17.2185 22.2593 16.9703 22.2593 15.0003C22.2593 13.0302 22.251 12.782 22.2157 12.0079C22.2038 11.4055 22.0897 10.8094 21.8784 10.2452C21.6961 9.76089 21.4103 9.32222 21.041 8.95981C20.6786 8.59046 20.2399 8.30466 19.7556 8.12237C19.1913 7.91109 18.5953 7.79703 17.9929 7.78504C17.2194 7.75048 16.9713 7.74219 15.0012 7.74219Z" fill="white"/>
<path d="M15.0016 11.2758C14.2644 11.2758 13.5438 11.4944 12.9309 11.9039C12.318 12.3135 11.8402 12.8956 11.5581 13.5766C11.276 14.2577 11.2022 15.0071 11.346 15.7301C11.4898 16.4531 11.8448 17.1172 12.3661 17.6385C12.8873 18.1597 13.5515 18.5147 14.2745 18.6585C14.9975 18.8023 15.7469 18.7285 16.4279 18.4464C17.109 18.1643 17.6911 17.6866 18.1006 17.0737C18.5102 16.4607 18.7288 15.7401 18.7288 15.0029C18.7288 14.0144 18.3361 13.0664 17.6371 12.3674C16.9381 11.6684 15.9901 11.2758 15.0016 11.2758ZM15.0016 17.4223C14.5231 17.4223 14.0553 17.2804 13.6575 17.0146C13.2596 16.7487 12.9495 16.3709 12.7664 15.9288C12.5833 15.4867 12.5354 15.0003 12.6287 14.531C12.7221 14.0616 12.9525 13.6306 13.2909 13.2922C13.6292 12.9539 14.0603 12.7234 14.5296 12.6301C14.9989 12.5367 15.4854 12.5846 15.9275 12.7678C16.3695 12.9509 16.7474 13.261 17.0132 13.6588C17.2791 14.0567 17.421 14.5244 17.421 15.0029C17.421 15.6446 17.1661 16.26 16.7123 16.7137C16.2586 17.1674 15.6433 17.4223 15.0016 17.4223Z" fill="white"/>
<path d="M18.8754 11.9949C19.3562 11.9949 19.746 11.6051 19.746 11.1243C19.746 10.6435 19.3562 10.2538 18.8754 10.2538C18.3946 10.2538 18.0049 10.6435 18.0049 11.1243C18.0049 11.6051 18.3946 11.9949 18.8754 11.9949Z" fill="white"/>
</svg>
