<svg width="30" height="30" viewBox="0 0 30 30" fill="none" xmlns="http://www.w3.org/2000/svg">
<circle cx="15" cy="15" r="15" fill="#4B4B4B"/>
<path d="M21.6513 11.7734C21.2023 11.9729 20.7284 12.0976 20.2296 12.1725C20.7284 11.8731 21.1275 11.3993 21.3021 10.8256C20.8282 11.1 20.3044 11.2995 19.7307 11.4242C19.2818 10.9503 18.6333 10.651 17.9349 10.651C16.5881 10.651 15.4906 11.7484 15.4906 13.0953C15.4906 13.2948 15.5156 13.4694 15.5655 13.644C13.5452 13.5443 11.7244 12.5715 10.5023 11.075C10.3027 11.4491 10.178 11.8482 10.178 12.2972C10.178 13.1452 10.602 13.8934 11.2755 14.3424C10.8764 14.3174 10.5023 14.2177 10.1531 14.0431V14.068C10.1531 15.2652 11.0011 16.2629 12.1235 16.4874C11.924 16.5373 11.6995 16.5622 11.475 16.5622C11.3254 16.5622 11.1508 16.5373 11.0011 16.5123C11.3254 17.4851 12.2233 18.2084 13.2958 18.2084C12.4477 18.8569 11.4002 19.2559 10.2529 19.2559C10.0533 19.2559 9.85379 19.2559 9.6792 19.231C10.7766 19.9294 12.0487 20.3284 13.4454 20.3284C17.9599 20.3284 20.4291 16.5872 20.4291 13.3447C20.4291 13.2449 20.4291 13.1202 20.4291 13.0205C20.903 12.6962 21.327 12.2722 21.6513 11.7734Z" fill="white"/>
</svg>
