<svg width="120" height="60" viewBox="0 0 120 60" fill="none" xmlns="http://www.w3.org/2000/svg">
<path d="M60.8391 29.3986H59.047V22.402C59.0378 21.7098 59.0639 21.0174 59.1249 20.3277C59.0668 20.6732 58.9616 21.0091 58.812 21.3259L55.5296 29.4637H54.2799L50.9923 21.4072L50.6795 20.3222C50.7573 20.7833 50.7573 21.4743 50.7573 22.4741V29.4799H49.0376V18.6423H51.6163L54.5097 25.865L54.9781 27.0951C55.0968 26.6473 55.2535 26.2105 55.4465 25.7894L58.4159 18.5667H60.9172L60.8391 29.3986ZM64.1993 20.024C64.0547 20.0316 63.9101 20.0081 63.7753 19.9551C63.6405 19.902 63.5187 19.8207 63.418 19.7166C63.2082 19.5503 63.0916 19.2928 63.1051 19.0257C63.0753 18.7555 63.1951 18.4907 63.418 18.3349C63.6409 18.155 63.9136 18.0478 64.1993 18.0275C64.3439 18.0199 64.4885 18.0434 64.6233 18.0964C64.7581 18.1494 64.8799 18.2308 64.9806 18.3349C65.1904 18.5012 65.307 18.7587 65.2935 19.0257C65.3233 19.296 65.2035 19.5608 64.9806 19.7166C64.8799 19.8207 64.7581 19.902 64.6233 19.9551C64.4885 20.0081 64.3439 20.0316 64.1993 20.024ZM65.0583 29.3986H63.2606V21.6388H65.0583V29.3986ZM73.1053 29.0933C72.4796 29.4767 71.6985 29.6362 70.8393 29.6362C69.6675 29.6362 68.7288 29.2527 68.0254 28.5601C67.322 27.8674 66.9404 26.9471 66.9404 25.7931C66.9404 24.4875 67.3309 23.4875 68.1122 22.7188C68.8935 21.9501 69.9098 21.5666 71.2372 21.5666C71.8817 21.5668 72.5196 21.6972 73.1124 21.9501V23.5596C72.613 23.1884 72.0143 22.9743 71.3927 22.9448C70.6139 22.9448 69.9859 23.1746 69.5175 23.7133C69.0364 24.2616 68.7846 24.9738 68.814 25.7026C68.814 26.4711 69.049 27.1617 69.5172 27.6232C70.0001 28.0846 70.6474 28.3333 71.3148 28.3141C71.9773 28.3054 72.6147 28.0603 73.1124 27.6232V29.0938L73.1053 29.0933ZM79.435 23.3315C79.1517 23.1654 78.8262 23.0857 78.4959 23.1017C77.953 23.1017 77.5568 23.3315 77.1667 23.7926C76.7766 24.2536 76.6238 24.8776 76.6238 25.7132V29.4025H74.8262V21.6388H76.6238V23.2518C76.7716 22.7584 77.04 22.3096 77.4049 21.9462C77.7466 21.6376 78.1942 21.4725 78.6546 21.4851C78.8978 21.4816 79.1385 21.5342 79.358 21.6388L79.435 23.3315ZM84.1993 29.6355C82.9496 29.6355 82.0112 29.252 81.3059 28.5594C80.6006 27.8667 80.2209 26.8685 80.2209 25.7191C80.2209 24.4135 80.6114 23.4135 81.3927 22.6448C82.174 21.8761 83.1903 21.5598 84.4398 21.5598C85.6893 21.5598 86.6279 21.9432 87.3332 22.6448C88.0385 23.3464 88.3406 24.3302 88.3406 25.6358C88.3736 26.7364 87.9855 27.8081 87.2556 28.6322C86.3822 29.3079 85.3033 29.663 84.1993 29.6401V29.6355ZM84.2772 22.8738C83.5743 22.8738 83.0276 23.1041 82.6372 23.5647C82.2466 24.0257 82.0114 24.7168 82.0114 25.554C82.0114 26.3912 82.2464 27.0131 82.6372 27.4746C83.0279 27.9361 83.5763 28.1654 84.2772 28.1654C84.9781 28.1654 85.5269 27.9357 85.9172 27.4746C86.3075 27.0135 86.4601 26.3985 86.4601 25.4853C86.4601 24.6407 86.3043 23.9506 85.9172 23.4959C85.6985 23.2894 85.4408 23.1286 85.1591 23.0231C84.8774 22.9175 84.5775 22.8692 84.2769 22.8812L84.2772 22.8738ZM89.5921 29.1689V27.5518C90.2953 28.0129 90.999 28.3203 91.7803 28.3203C92.8736 28.3203 93.4203 28.0129 93.4203 27.3981C93.4042 27.2345 93.3509 27.0768 93.2645 26.937C93.1715 26.7945 93.0343 26.6866 92.874 26.6296C92.6992 26.5394 92.5178 26.4624 92.3311 26.3999L91.6279 26.1701C91.3353 26.057 91.0486 25.929 90.769 25.7867C90.547 25.6521 90.3376 25.4978 90.1432 25.3256C89.9694 25.1519 89.836 24.942 89.7527 24.7108C89.6561 24.4658 89.6034 24.2057 89.5972 23.9424C89.5917 23.5953 89.6725 23.2523 89.8322 22.9442C89.9834 22.6422 90.2309 22.3991 90.5356 22.2533C90.8485 22.0236 91.1614 21.9459 91.5519 21.7922C91.9366 21.7034 92.3291 21.6519 92.7237 21.6386C93.3884 21.6156 94.0514 21.7199 94.6769 21.9459V23.4852C94.1249 23.1105 93.4684 22.9206 92.8016 22.9425C92.59 22.9247 92.377 22.9506 92.1758 23.0186C92.0201 23.0946 91.863 23.0946 91.7074 23.1721C91.5684 23.2316 91.4568 23.3416 91.3945 23.4794C91.3318 23.597 91.3048 23.7303 91.3167 23.8629C91.3041 24.0206 91.3308 24.179 91.3943 24.324C91.4563 24.4621 91.568 24.5719 91.7072 24.6314C91.882 24.7216 92.0634 24.7986 92.25 24.8611C92.4851 24.9371 92.6406 25.0146 92.9532 25.0908C93.2506 25.251 93.564 25.3795 93.8882 25.4743C94.2011 25.5503 94.3567 25.7817 94.5914 25.9354C94.7658 26.1257 94.9226 26.3315 95.0598 26.5501C95.1561 26.8216 95.2087 27.1067 95.2156 27.3947C95.2156 27.7781 95.1377 28.1631 94.9027 28.3929C94.7311 28.6807 94.4898 28.9208 94.2011 29.091C93.8518 29.2722 93.489 29.4264 93.1161 29.5521C91.933 29.8508 90.6822 29.714 89.5914 29.1668L89.5921 29.1689ZM100.457 29.6355C99.2071 29.6355 98.2687 29.252 97.5634 28.5594C96.8581 27.8667 96.4784 26.8685 96.4784 25.7191C96.4784 24.4135 96.8689 23.4135 97.6502 22.6448C98.4315 21.8761 99.4478 21.5598 100.697 21.5598C101.947 21.5598 102.885 21.9432 103.591 22.6448C104.296 23.3464 104.607 24.3356 104.607 25.6413C104.64 26.7419 104.252 27.8136 103.522 28.6377C102.637 29.3036 101.555 29.6554 100.448 29.6378L100.457 29.6355ZM100.535 22.8738C99.8318 22.8738 99.2851 23.1041 98.8946 23.5647C98.5041 24.0257 98.2689 24.7168 98.2689 25.554C98.2689 26.3912 98.5039 27.0131 98.8946 27.4746C99.2854 27.9361 99.8338 28.1654 100.535 28.1654C101.236 28.1654 101.784 27.9357 102.175 27.4746C102.565 27.0135 102.718 26.3985 102.718 25.4853C102.718 24.6407 102.562 23.9506 102.175 23.4959C101.957 23.2866 101.699 23.1233 101.416 23.0155C101.134 22.9076 100.833 22.8576 100.531 22.8683L100.535 22.8738ZM110.765 19.4106C110.506 19.2542 110.208 19.1745 109.906 19.1808C109.047 19.1808 108.577 19.6419 108.577 20.6399V21.7164H110.374V23.0999H108.577V29.4818H106.786V23.0981H105.457V21.7146H106.786V20.4846C106.786 19.6401 107.021 19.0255 107.565 18.564C107.993 18.2361 108.492 18.0156 109.023 17.9211C109.553 17.8266 110.098 17.8609 110.612 18.0211V19.4046H110.762L110.765 19.4106ZM115.926 29.3224C115.614 29.4755 115.145 29.5521 114.519 29.5521C112.957 29.5521 112.253 28.8613 112.253 27.4002V23.0223H110.924V21.6388H112.253V19.8705L114.051 19.4094V21.7151H115.926V23.0985H114.051V26.9466C114.026 27.2955 114.108 27.6437 114.286 27.9448C114.442 28.1746 114.755 28.2522 115.145 28.2522C115.423 28.2562 115.696 28.1727 115.924 28.0136V29.3192L115.926 29.3224ZM59.9907 45.3561H57.9581L56.9418 42.5909H52.5655L51.6264 45.3579H49.5956L53.7369 34.5237H55.764L59.9907 45.3561ZM56.4733 41.13L54.9112 36.828C54.8425 36.6018 54.7906 36.3709 54.7557 36.1371C54.7208 36.3709 54.6688 36.6018 54.6002 36.828L53.1154 41.13H56.4733ZM67.1106 38.3592L62.8898 43.9653H67.109V45.3487H60.3817V44.6707L64.7598 38.9797H60.8538V37.5962H67.1832V38.3594L67.1106 38.3592ZM75.5397 45.3561H73.7421V44.1283C73.5095 44.5638 73.1587 44.9247 72.73 45.1694C72.3013 45.4142 71.8122 45.5329 71.319 45.5118C69.4437 45.5118 68.505 44.4357 68.505 42.208V37.5958H70.3027V42.0518C70.3027 43.4346 70.8493 44.1261 71.9427 44.1261C72.1902 44.1361 72.4369 44.0928 72.6662 43.9992C72.8956 43.9056 73.1021 43.7638 73.2719 43.5834C73.623 43.1481 73.8145 42.6056 73.8145 42.0463V37.5958H75.6103L75.5397 45.3561ZM82.4168 39.2869C82.1335 39.1208 81.808 39.0411 81.4777 39.0571C80.9348 39.0571 80.5386 39.2869 80.1485 39.7479C79.7584 40.209 79.6056 40.833 79.6056 41.6685V45.3577H77.808V37.5958H79.6056V39.2087C79.7534 38.7154 80.0218 38.2666 80.3867 37.9031C80.7252 37.5976 81.1655 37.4327 81.6236 37.4421C81.8668 37.4386 82.1075 37.4912 82.327 37.5958L82.4168 39.2869ZM90.3865 41.9759H84.9957C84.9957 42.6668 85.2307 43.2815 85.6989 43.6668C86.0894 44.0502 86.7152 44.2816 87.4965 44.2816C88.3448 44.3004 89.1741 44.0293 89.8475 43.5131V44.8966C89.1387 45.3608 88.1983 45.5929 87.0265 45.5929C86.5206 45.6099 86.0167 45.5223 85.5462 45.3356C85.0757 45.1489 84.6489 44.8671 84.2923 44.5079C83.5891 43.8171 83.276 42.817 83.276 41.5114C83.239 40.433 83.6289 39.3835 84.361 38.5908C84.7076 38.2139 85.131 37.9159 85.6028 37.7168C86.0745 37.5178 86.5834 37.4224 87.0952 37.437C88.1802 37.437 88.9705 37.7444 89.5965 38.4352C90.2225 39.1261 90.4554 40.0482 90.4554 41.2755L90.3865 41.9759ZM88.6667 40.7459C88.6667 40.1311 88.511 39.5938 88.1983 39.2869C88.049 39.1026 87.8575 38.957 87.6399 38.8625C87.4224 38.768 87.1852 38.7273 86.9486 38.744C86.7011 38.734 86.4544 38.7772 86.2251 38.8709C85.9957 38.9645 85.7892 39.1063 85.6194 39.2866C85.2289 39.6701 85.0766 40.1311 84.9937 40.7457L88.6667 40.7459Z" fill="#1A1F2D"/>
<path fill-rule="evenodd" clip-rule="evenodd" d="M28.531 19.0379L22.7039 30.7739L32.9655 42.6645L13.9243 44.826L43.4708 45.1353L28.531 19.0379ZM27.3819 14.4051L14.0038 25.6007L4.07275 42.3559L12.5264 41.5084L27.3819 14.4051Z" fill="#1A1F2D"/>
</svg>
