<svg width="120" height="60" viewBox="0 0 120 60" fill="none" xmlns="http://www.w3.org/2000/svg">
<path d="M20.8242 14.33V16.474H36.0742V14.33H20.8242ZM38.2362 14.33V16.474H59.9702C59.9702 16.474 57.7502 14.33 54.8102 14.33H38.2362ZM64.2332 14.33V16.474H77.3802L76.6002 14.33H64.2332ZM86.8082 14.33L86.0282 16.474H99.0582V14.33H86.8082ZM20.8242 18.5V20.644H36.0742V18.5H20.8242ZM38.2362 18.503V20.643H62.4902C62.4902 20.643 62.2072 18.993 61.7132 18.503H38.2362ZM64.2332 18.503V20.643H78.8332L78.1112 18.503H64.2332ZM85.2472 18.503L84.5252 20.643H99.0572V18.503H85.2472ZM25.2072 22.67V24.817H31.8122V22.67H25.2072ZM42.6192 22.67V24.817H49.2242V22.67H42.6192ZM55.6492 22.67V24.817H62.2542C62.2542 24.817 62.6742 23.683 62.6742 22.67H55.6492ZM68.6172 22.67V24.817H80.3172L79.5372 22.67H68.6172ZM83.8102 22.67L83.0262 24.817H94.7942V22.67H83.8102ZM25.2082 26.843V28.987H31.8132V26.843H25.2082ZM42.6202 26.843V28.987H59.4902C59.4902 28.987 60.9002 27.887 61.3502 26.843H42.6202ZM68.6172 26.843V28.987H75.2222V27.793L75.6422 28.987H87.7422L88.1922 27.793V28.987H94.7972V26.843H82.3972L81.7392 28.659L81.0792 26.843H68.6172ZM25.2072 31.013V33.157H31.8122V31.013H25.2072ZM42.6192 31.013V33.157H61.3492C60.8992 32.117 59.4892 31.013 59.4892 31.013H42.6192ZM68.6162 31.013V33.157H75.2212V31.013H68.6162ZM76.4212 31.013L77.2212 33.157H86.2932L87.0532 31.013H76.4212ZM88.1892 31.013V33.157H94.7942V31.013H88.1892ZM25.2092 35.183V37.327H31.8142V35.183H25.2092ZM42.6212 35.183V37.327H49.2262V35.183H42.6212ZM55.6512 35.183V37.327H62.6752C62.6752 36.315 62.2552 35.183 62.2552 35.183H55.6512ZM68.6192 35.183V37.327H75.2242V35.183H68.6192ZM77.9232 35.183L78.6972 37.327H84.7772L85.5572 35.183H77.9232ZM88.1912 35.183V37.327H94.7962V35.183H88.1912ZM20.9462 39.353V41.5H36.1962V39.353H20.9462ZM38.2392 39.353V41.5H61.7172C62.2112 41.008 62.4942 39.353 62.4942 39.353H38.2392ZM64.3552 39.353V41.5H75.2202V39.353H64.3552ZM79.4252 39.353L80.2212 41.5H83.3152L84.0622 39.353H79.4252ZM88.1912 39.353V41.5H99.1792V39.353H88.1912ZM20.9462 43.526V45.67H36.1962V43.526H20.9462ZM38.2392 43.526V45.666H54.8102C57.7502 45.666 59.9702 43.526 59.9702 43.526H38.2392ZM64.3552 43.526V45.67H75.2202V43.526H64.3552ZM80.9352 43.526L81.7002 45.664L81.8322 45.667L82.6092 43.527L80.9352 43.526ZM88.1922 43.526V45.67H99.1802V43.526H88.1922Z" fill="#1A1F2D"/>
</svg>
